<svg fill="#ff9500" viewBox="0 0 24 24" xmlns="http://www.w3.org/2000/svg"><title>Networking</title><path d="M12 2a3 3 0 0 0-3 3c0 1.11.6 2.08 1.5 2.6v1.9H8a4 4 0 0 0-4 4h-.5v1.9A3 3 0 0 0 2 18a3 3 0 0 0 3 3 3 3 0 0 0 3-3 3 3 0 0 0-1.5-2.6V14.5H8a2 2 0 0 1 2 2v.9A3 3 0 0 0 9 20a3 3 0 0 0 3 3 3 3 0 0 0 3-3 3 3 0 0 0-1-2.2v-1.3a2 2 0 0 1 2-2h1.5v.9A3 3 0 0 0 16 18a3 3 0 0 0 3 3 3 3 0 0 0 3-3 3 3 0 0 0-1.5-2.6V14.5H20a4 4 0 0 0-4-4h-2.5V7.6A3 3 0 0 0 15 5a3 3 0 0 0-3-3zm0 2a1 1 0 0 1 1 1 1 1 0 0 1-1 1 1 1 0 0 1-1-1 1 1 0 0 1 1-1zM5 17a1 1 0 0 1 1 1 1 1 0 0 1-1 1 1 1 0 0 1-1-1 1 1 0 0 1 1-1zm7 2a1 1 0 0 1 1 1 1 1 0 0 1-1 1 1 1 0 0 1-1-1 1 1 0 0 1 1-1zm7-2a1 1 0 0 1 1 1 1 1 0 0 1-1 1 1 1 0 0 1-1-1 1 1 0 0 1 1-1z"/></svg>
